<svg width="31" height="27" viewBox="0 0 31 27" fill="none" xmlns="http://www.w3.org/2000/svg">
<path d="M29.0021 19.7693C27.4772 18.9179 25.6186 19.1464 24.3664 20.2124L22.4647 19.1498V13.8995C22.4647 13.3561 22.1633 12.8508 21.6754 12.5808L16.7957 9.87083V7.54848C18.3816 7.02933 19.5226 5.58262 19.5226 3.87634C19.5226 1.73397 17.725 0 15.504 0C13.283 0 11.4854 1.73397 11.4854 3.87634C11.4854 5.58262 12.6264 7.02933 14.2123 7.54848V9.87083L9.33263 12.5808C8.84466 12.8508 8.54327 13.3561 8.54327 13.8995V19.1464L6.64162 20.2089C5.38941 19.1429 3.52724 18.9145 2.00592 19.7659C0.0863365 20.8388 -0.56668 23.2061 0.534838 25.0578C1.63994 26.9094 4.08338 27.5463 5.99578 26.4768C7.52069 25.6254 8.24546 23.9503 7.91896 22.3651L9.66631 21.3856L14.7111 24.1891C14.955 24.324 15.2277 24.3933 15.5004 24.3933C15.7731 24.3933 16.0458 24.324 16.2898 24.1891L21.3309 21.3891L23.0783 22.3686C22.7518 23.9503 23.4801 25.6288 25.0015 26.4803C26.9139 27.5497 29.3609 26.9163 30.4624 25.0612C31.5675 23.2061 30.9145 20.8388 29.0021 19.7693ZM4.8548 24.5594C4.03673 25.0162 2.98545 24.7463 2.51542 23.9503C2.0418 23.1577 2.32167 22.1401 3.14332 21.6833C3.96138 21.2264 5.01267 21.4964 5.4827 22.2924C5.95632 23.085 5.67645 24.1025 4.8548 24.5594ZM13.7782 3.87634C13.7782 2.95917 14.5496 2.21505 15.5004 2.21505C16.4512 2.21505 17.2227 2.95917 17.2227 3.87634C17.2227 4.79351 16.4512 5.53763 15.5004 5.53763C14.5496 5.53763 13.7782 4.79351 13.7782 3.87634ZM19.8778 19.3194L15.5004 21.7525L11.123 19.3194V14.4601L15.5004 12.027L19.8778 14.4601V19.3194ZM28.4854 23.9537C28.0118 24.7463 26.9641 25.0197 26.146 24.5629C25.328 24.106 25.0445 23.0885 25.5181 22.2959C25.9917 21.5033 27.0394 21.2299 27.8575 21.6867C28.6792 22.1436 28.959 23.1577 28.4854 23.9537Z" fill="#FDFDFD"/>
</svg>
