<svg width="15" height="13" viewBox="0 0 15 13" fill="none" xmlns="http://www.w3.org/2000/svg">
<path d="M9.02287 8.50704C9.02287 8.64668 8.97177 8.76764 8.86982 8.86953C8.76776 8.9717 8.64686 9.02269 8.50721 9.02269H5.92934C5.78961 9.02269 5.66882 8.9717 5.56676 8.86953C5.46473 8.76767 5.41371 8.64671 5.41371 8.50704V7.21814H0.00012207V11.085C0.00012207 11.4394 0.126277 11.7428 0.378729 11.9952C0.631125 12.2476 0.93462 12.3738 1.2891 12.3738H13.1475C13.5019 12.3738 13.8053 12.2476 14.0578 11.9952C14.3103 11.7428 14.4364 11.4394 14.4364 11.085V7.21814H9.02287V8.50704Z" fill="#B6B6B6"/>
<path d="M8.24964 7.21814H6.18713V8.24931H8.24964V7.21814Z" fill="#B6B6B6"/>
<path d="M14.0576 2.44094C13.8052 2.18849 13.5017 2.06233 13.1473 2.06233H10.3116V0.773326C10.3116 0.558486 10.2364 0.375927 10.086 0.225533C9.93574 0.0752248 9.75304 0 9.53829 0H4.89805C4.68327 0 4.50068 0.0752248 4.35026 0.225533C4.19984 0.375842 4.1247 0.558458 4.1247 0.773326V2.06233H1.28898C0.934526 2.06233 0.631031 2.18849 0.378607 2.44094C0.126155 2.69336 0 2.99669 0 3.35117V6.4447H14.4362V3.35117C14.4362 2.99669 14.3102 2.69336 14.0576 2.44094ZM9.28047 2.06233H5.15583V1.03111H9.28047V2.06233Z" fill="#B6B6B6"/>
</svg>
