<svg width="19" height="21" viewBox="0 0 19 21" fill="none" xmlns="http://www.w3.org/2000/svg">
<path d="M13.9255 4.47815C13.9255 4.37335 13.8398 4.2876 13.735 4.2876H4.5885C4.4837 4.2876 4.39795 4.37335 4.39795 4.47815V5.62146C4.39795 5.72626 4.4837 5.81201 4.5885 5.81201H13.735C13.8398 5.81201 13.9255 5.72626 13.9255 5.62146V4.47815ZM13.735 7.71752H4.5885C4.4837 7.71752 4.39795 7.80327 4.39795 7.90807V9.05138C4.39795 9.15619 4.4837 9.24193 4.5885 9.24193H13.735C13.8398 9.24193 13.9255 9.15619 13.9255 9.05138V7.90807C13.9255 7.80327 13.8398 7.71752 13.735 7.71752ZM8.97118 11.1474H4.5885C4.4837 11.1474 4.39795 11.2332 4.39795 11.338V12.4813C4.39795 12.5861 4.4837 12.6719 4.5885 12.6719H8.97118C9.07599 12.6719 9.16174 12.5861 9.16174 12.4813V11.338C9.16174 11.2332 9.07599 11.1474 8.97118 11.1474Z" fill="#979797"/>
<path d="M7.8275 18.4835H2.49206V1.71496H15.8307V9.90867C15.8307 10.0135 15.9164 10.0992 16.0212 10.0992H17.3551C17.4599 10.0992 17.5456 10.0135 17.5456 9.90867V0.762206C17.5456 0.340611 17.205 0 16.7834 0H1.53931C1.11771 0 0.7771 0.340611 0.7771 0.762206V19.4362C0.7771 19.8578 1.11771 20.1985 1.53931 20.1985H7.8275C7.93231 20.1985 8.01805 20.1127 8.01805 20.0079V18.674C8.01805 18.5692 7.93231 18.4835 7.8275 18.4835Z" fill="#979797"/>
<path d="M16.3263 16.7113C17.017 16.0848 17.4505 15.1797 17.4505 14.1722C17.4505 12.2786 15.9142 10.7422 14.0206 10.7422C12.127 10.7422 10.5907 12.2786 10.5907 14.1722C10.5907 15.1797 11.0242 16.0848 11.715 16.7113C10.3573 17.4854 9.42357 18.9193 9.35211 20.5723C9.34735 20.6795 9.43548 20.77 9.54266 20.77H10.6884C10.7884 20.77 10.8718 20.6914 10.8789 20.589C10.9718 18.9407 12.3462 17.6259 14.0206 17.6259C15.6951 17.6259 17.0694 18.9407 17.1623 20.589C17.1671 20.689 17.2505 20.77 17.3529 20.77H18.4986C18.6081 20.77 18.6939 20.6795 18.6891 20.5723C18.6201 18.9169 17.684 17.4854 16.3263 16.7113ZM14.0206 12.2667C15.0734 12.2667 15.9261 13.1194 15.9261 14.1722C15.9261 15.225 15.0734 16.0777 14.0206 16.0777C12.9678 16.0777 12.1151 15.225 12.1151 14.1722C12.1151 13.1194 12.9678 12.2667 14.0206 12.2667Z" fill="#979797"/>
</svg>
