<svg width="20" height="16" viewBox="0 0 20 16" fill="none" xmlns="http://www.w3.org/2000/svg">
<path d="M8.8609 6.17162V8.19384H6.8482C6.75054 8.19384 6.66956 8.26768 6.66956 8.36058V9.36097C6.66956 9.45148 6.75054 9.5277 6.8482 9.5277H8.8609V11.5499C8.8609 11.6428 8.93712 11.719 9.02763 11.719H10.028C10.1209 11.719 10.1948 11.6428 10.1948 11.5499V9.5277H12.2075C12.3051 9.5277 12.3861 9.45148 12.3861 9.36097V8.36058C12.3861 8.26768 12.3051 8.19384 12.2075 8.19384H10.1948V6.17162C10.1948 6.07872 10.1209 6.0025 10.028 6.0025H9.02763C8.93712 6.0025 8.8609 6.07872 8.8609 6.17162Z" fill="#FF3333"/>
<path d="M18.2929 2.72488H9.74194L6.94798 0.0524016C6.91225 0.0190551 6.86462 0 6.81698 0H0.762206C0.340611 0 0 0.340611 0 0.762206V14.863C0 15.2846 0.340611 15.6252 0.762206 15.6252H18.2929C18.7145 15.6252 19.0551 15.2846 19.0551 14.863V3.48709C19.0551 3.0655 18.7145 2.72488 18.2929 2.72488ZM17.3402 13.9103H1.71496V1.71496H6.20483L9.05357 4.43985H17.3402V13.9103Z" fill="#FF3333"/>
</svg>
