<svg width="13" height="15" viewBox="0 0 13 15" fill="none" xmlns="http://www.w3.org/2000/svg">
  <path d="M9.47696 3.14582C9.47696 3.0722 9.41673 3.01196 9.3431 3.01196H2.9178C2.84417 3.01196 2.78394 3.0722 2.78394 3.14582V3.94899C2.78394 4.02261 2.84417 4.08285 2.9178 4.08285H9.3431C9.41673 4.08285 9.47696 4.02261 9.47696 3.94899V3.14582ZM9.3431 5.42145H2.9178C2.84417 5.42145 2.78394 5.48169 2.78394 5.55531V6.35848C2.78394 6.4321 2.84417 6.49234 2.9178 6.49234H9.3431C9.41673 6.49234 9.47696 6.4321 9.47696 6.35848V5.55531C9.47696 5.48169 9.41673 5.42145 9.3431 5.42145ZM5.99659 7.83094H2.9178C2.84417 7.83094 2.78394 7.89118 2.78394 7.9648V8.76797C2.78394 8.84159 2.84417 8.90183 2.9178 8.90183H5.99659C6.07021 8.90183 6.13045 8.84159 6.13045 8.76797V7.9648C6.13045 7.89118 6.07021 7.83094 5.99659 7.83094Z" fill="#9F9F9F"/>
  <path d="M5.19307 12.9845H1.44498V1.20474H10.8152V6.96075C10.8152 7.03437 10.8755 7.09461 10.9491 7.09461H11.8861C11.9597 7.09461 12.02 7.03437 12.02 6.96075V0.535442C12.02 0.239276 11.7807 0 11.4845 0H0.775677C0.47951 0 0.240234 0.239276 0.240234 0.535442V13.6538C0.240234 13.9499 0.47951 14.1892 0.775677 14.1892H5.19307C5.2667 14.1892 5.32693 14.129 5.32693 14.0554V13.1183C5.32693 13.0447 5.2667 12.9845 5.19307 12.9845Z" fill="#9F9F9F"/>
  <path d="M11.1636 11.7394C11.6488 11.2994 11.9534 10.6635 11.9534 9.95575C11.9534 8.62552 10.8741 7.54626 9.54387 7.54626C8.21363 7.54626 7.13438 8.62552 7.13438 9.95575C7.13438 10.6635 7.43892 11.2994 7.92416 11.7394C6.9704 12.2833 6.31449 13.2906 6.26429 14.4518C6.26094 14.5271 6.32285 14.5907 6.39815 14.5907H7.20299C7.27326 14.5907 7.33183 14.5355 7.33685 14.4635C7.4021 13.3056 8.36757 12.382 9.54387 12.382C10.7202 12.382 11.6856 13.3056 11.7509 14.4635C11.7542 14.5338 11.8128 14.5907 11.8848 14.5907H12.6896C12.7666 14.5907 12.8268 14.5271 12.8235 14.4518C12.7749 13.2889 12.1173 12.2833 11.1636 11.7394ZM9.54387 8.61715C10.2835 8.61715 10.8825 9.21617 10.8825 9.95575C10.8825 10.6953 10.2835 11.2944 9.54387 11.2944C8.80429 11.2944 8.20527 10.6953 8.20527 9.95575C8.20527 9.21617 8.80429 8.61715 9.54387 8.61715Z" fill="#9F9F9F"/>
</svg>
