<svg width="13" height="8" viewBox="0 0 13 8" fill="none" xmlns="http://www.w3.org/2000/svg">
<path d="M12.2359 3.50092C11.5914 2.44674 10.7247 1.59971 9.63606 0.959855C8.54734 0.319976 7.3977 0 6.187 0C4.97629 0 3.8266 0.319855 2.73788 0.959855C1.64915 1.59971 0.782526 2.44674 0.138052 3.50092C0.0460252 3.66202 0 3.82084 0 3.9774C0 4.13395 0.0460252 4.29278 0.138052 4.45383C0.782526 5.50806 1.64915 6.35516 2.73788 6.99487C3.8266 7.63482 4.97629 7.95455 6.187 7.95455C7.39773 7.95455 8.54737 7.63589 9.63606 6.99835C10.7247 6.3608 11.5915 5.51258 12.2359 4.45383C12.328 4.29278 12.374 4.13402 12.374 3.9774C12.374 3.82084 12.328 3.66202 12.2359 3.50092ZM4.70575 1.61233C5.11773 1.20036 5.61143 0.994295 6.18692 0.994295C6.27895 0.994295 6.35726 1.02661 6.42174 1.09101C6.48612 1.15544 6.51849 1.23373 6.51849 1.32578C6.51849 1.41791 6.48612 1.49615 6.42189 1.56048C6.3575 1.62498 6.27914 1.6572 6.18709 1.6572C5.79122 1.6572 5.45277 1.79767 5.172 2.07842C4.89113 2.35933 4.75078 2.69764 4.75078 3.09351C4.75078 3.18568 4.71847 3.26387 4.65406 3.32835C4.58956 3.39288 4.51134 3.42507 4.41929 3.42507C4.32717 3.42507 4.24893 3.39281 4.18445 3.32835C4.11995 3.26387 4.08773 3.18559 4.08773 3.09351C4.08773 2.51813 4.29379 2.02434 4.70575 1.61233ZM9.18732 6.23203C8.2643 6.7912 7.26422 7.07096 6.187 7.07096C5.10979 7.07096 4.10972 6.79137 3.18675 6.23203C2.26377 5.67269 1.49615 4.92117 0.883912 3.9774C1.58363 2.89096 2.46057 2.07839 3.51475 1.5399C3.23396 2.01858 3.09351 2.53652 3.09351 3.09349C3.09351 3.94521 3.39624 4.67351 4.00154 5.27895C4.60683 5.88439 5.3354 6.18697 6.187 6.18697C7.03867 6.18697 7.76702 5.88422 8.37246 5.27895C8.9779 4.67368 9.28051 3.94521 9.28051 3.09349C9.28051 2.53652 9.14004 2.01851 8.85922 1.5399C9.91335 2.07839 10.7903 2.89103 11.49 3.9774C10.8779 4.92117 10.1103 5.67269 9.18732 6.23203Z" fill="#9F9F9F"/>
</svg>
