<svg width="22" height="25" viewBox="0 0 22 25" fill="none" xmlns="http://www.w3.org/2000/svg">
<path d="M2.45337 20.4805V24.1737C2.45337 24.3847 2.62212 24.5574 2.82837 24.5574H5.07837C5.28462 24.5574 5.45337 24.3847 5.45337 24.1737V20.4805C4.97993 20.6387 4.47837 20.7203 3.95337 20.7203C3.42837 20.7203 2.92681 20.634 2.45337 20.4805ZM5.45337 10.9837V0.383709C5.45337 0.172669 5.28462 0 5.07837 0H2.82837C2.62212 0 2.45337 0.172669 2.45337 0.383709V10.9837C2.92681 10.8254 3.42837 10.7439 3.95337 10.7439C4.47837 10.7439 4.97993 10.8302 5.45337 10.9837Z" fill="#CDCCCC"/>
<path d="M2.76231 19.5321C3.1498 19.6587 3.56031 19.7239 3.99 19.7239C4.41969 19.7239 4.8302 19.6548 5.21769 19.5321C6.82137 19.0141 7.98 17.5102 7.98 15.7339C7.98 13.9576 6.82137 12.4537 5.21769 11.9357C4.8302 11.8091 4.41969 11.7439 3.99 11.7439C3.56031 11.7439 3.1498 11.813 2.76231 11.9357C1.15863 12.4537 0 13.9576 0 15.7339C0 17.5102 1.15863 19.0141 2.76231 19.5321ZM2.76614 15.0932C2.77765 15.0702 2.793 15.0472 2.80451 15.0241V15.0203L2.85055 14.9512C2.85438 14.9436 2.85822 14.9397 2.86206 14.9321C2.87357 14.9129 2.88891 14.8975 2.90042 14.8783C2.90426 14.8745 2.9081 14.8668 2.91193 14.863C2.93112 14.84 2.94646 14.8208 2.96564 14.8016L2.97715 14.7901L3.02319 14.7441L3.03854 14.7287C3.05772 14.7095 3.0769 14.6942 3.09992 14.675C3.12294 14.6558 3.14213 14.6405 3.16514 14.6251C3.17282 14.6213 3.17665 14.6175 3.18433 14.6136C3.20351 14.6021 3.21886 14.5868 3.23804 14.5753C3.24187 14.5714 3.24955 14.5676 3.25338 14.5638C3.2764 14.5484 3.29942 14.5369 3.32628 14.5216C3.33012 14.5177 3.33779 14.5177 3.34163 14.5139C3.36081 14.5024 3.37999 14.4947 3.40301 14.4832L3.42603 14.4717C3.45288 14.4602 3.4759 14.4487 3.50276 14.441C3.52962 14.4295 3.55647 14.4218 3.58333 14.4141C3.591 14.4103 3.59867 14.4103 3.60635 14.4065C3.62937 14.3988 3.64855 14.3949 3.67157 14.3911C3.67924 14.3911 3.68308 14.3873 3.69075 14.3873C3.71761 14.3796 3.7483 14.3758 3.77515 14.3719C3.78283 14.3719 3.78666 14.3719 3.79434 14.3681C3.81736 14.3643 3.84038 14.3643 3.86339 14.3604H3.88641C3.91711 14.3604 3.94396 14.3566 3.97465 14.3566C4.00535 14.3566 4.0322 14.3566 4.06289 14.3604H4.08591C4.10893 14.3604 4.13195 14.3643 4.15497 14.3681C4.16264 14.3681 4.16648 14.3681 4.17415 14.3719C4.20101 14.3758 4.2317 14.3796 4.25856 14.3873C4.26623 14.3873 4.27007 14.3911 4.27774 14.3911C4.30076 14.3949 4.32378 14.4026 4.34296 14.4065C4.35064 14.4103 4.35831 14.4103 4.36598 14.4141C4.39284 14.4218 4.41969 14.4295 4.44655 14.441C4.4734 14.4487 4.49642 14.4602 4.52328 14.4717L4.5463 14.4832C4.56548 14.4909 4.5885 14.5024 4.60768 14.5139C4.61152 14.5177 4.61919 14.5177 4.62303 14.5216C4.64605 14.5331 4.6729 14.5484 4.69592 14.5638C4.69976 14.5676 4.70743 14.5714 4.71127 14.5753C4.73045 14.5868 4.74964 14.5983 4.76498 14.6136C4.77265 14.6175 4.77649 14.6213 4.78416 14.6251C4.80718 14.6405 4.8302 14.6597 4.84938 14.675C4.86857 14.6904 4.89159 14.7095 4.91077 14.7287L4.92612 14.7441L4.97215 14.7901L4.98366 14.8016C5.00285 14.8208 5.02203 14.8438 5.03737 14.863C5.04121 14.8668 5.04505 14.8745 5.04888 14.8783C5.06423 14.8937 5.07574 14.9129 5.08725 14.9321C5.09109 14.9397 5.09492 14.9436 5.09876 14.9512L5.1448 15.0203C5.1448 15.0203 5.1448 15.0241 5.14864 15.0241C5.16398 15.0472 5.17549 15.0702 5.187 15.0932C5.28675 15.285 5.3443 15.5037 5.3443 15.7339C5.3443 15.9641 5.28675 16.1828 5.187 16.3746C5.17549 16.3976 5.16014 16.4206 5.14864 16.4437C5.14864 16.4437 5.14863 16.4475 5.1448 16.4475L5.09876 16.5166C5.09492 16.5242 5.09109 16.5281 5.08725 16.5357C5.07574 16.5549 5.06039 16.5703 5.04888 16.5894C5.04505 16.5933 5.04121 16.601 5.03737 16.6048C5.01819 16.6278 5.00285 16.647 4.98366 16.6662L4.97215 16.6777L4.92612 16.7237L4.91077 16.7391C4.89159 16.7583 4.8724 16.7736 4.84938 16.7928C4.82637 16.812 4.80718 16.8273 4.78416 16.8427C4.77649 16.8465 4.77265 16.8503 4.76498 16.8542C4.7458 16.8657 4.73045 16.881 4.71127 16.8925C4.70743 16.8964 4.69976 16.9002 4.69592 16.904C4.6729 16.9194 4.64988 16.9309 4.62303 16.9462C4.61919 16.9501 4.61152 16.9501 4.60768 16.9539C4.5885 16.9654 4.56932 16.9731 4.5463 16.9846L4.52328 16.9961C4.49642 17.0076 4.4734 17.0191 4.44655 17.0268C4.41969 17.0383 4.39284 17.046 4.36598 17.0537C4.35831 17.0575 4.35064 17.0575 4.34296 17.0613C4.31994 17.069 4.30076 17.0728 4.27774 17.0767C4.27007 17.0767 4.26623 17.0805 4.25856 17.0805C4.2317 17.0882 4.20101 17.092 4.17415 17.0959C4.16648 17.0959 4.16264 17.0959 4.15497 17.0997C4.13195 17.1035 4.10893 17.1035 4.08591 17.1074H4.06289C4.0322 17.1074 4.00535 17.1112 3.97465 17.1112C3.94396 17.1112 3.91711 17.1112 3.88641 17.1074H3.86339C3.84038 17.1074 3.81736 17.1035 3.79434 17.0997C3.78666 17.0997 3.78283 17.0997 3.77515 17.0959C3.7483 17.092 3.71761 17.0882 3.69075 17.0805C3.68308 17.0805 3.67924 17.0767 3.67157 17.0767C3.64855 17.0728 3.62553 17.0652 3.60635 17.0613C3.59867 17.0575 3.591 17.0575 3.58333 17.0537C3.55647 17.046 3.52962 17.0383 3.50276 17.0268C3.4759 17.0191 3.45288 17.0076 3.42603 16.9961L3.40301 16.9846C3.38383 16.9769 3.36081 16.9654 3.34163 16.9539C3.33779 16.9501 3.33012 16.9501 3.32628 16.9462C3.30326 16.9347 3.2764 16.9194 3.25338 16.904C3.24955 16.9002 3.24187 16.8964 3.23804 16.8925C3.21886 16.881 3.19967 16.8695 3.18433 16.8542C3.17665 16.8503 3.17282 16.8465 3.16514 16.8427C3.14213 16.8273 3.11911 16.8081 3.09992 16.7928C3.08074 16.7774 3.05772 16.7583 3.03854 16.7391L3.02319 16.7237L2.97715 16.6777L2.96564 16.6662C2.94646 16.647 2.92728 16.624 2.91193 16.6048C2.9081 16.601 2.90426 16.5933 2.90042 16.5894C2.88508 16.5741 2.87357 16.5549 2.86206 16.5357C2.85822 16.5281 2.85438 16.5242 2.85055 16.5166L2.80451 16.4475V16.4437C2.78916 16.4206 2.77765 16.3976 2.76614 16.3746C2.66639 16.1828 2.60885 15.9641 2.60885 15.7339C2.60885 15.5037 2.66639 15.285 2.76614 15.0932Z" fill="#CDCCCC"/>
<path d="M15.8833 13.5737V24.1737C15.8833 24.3847 16.0521 24.5574 16.2583 24.5574H18.5083C18.7146 24.5574 18.8833 24.3847 18.8833 24.1737V13.5737C18.4099 13.732 17.9083 13.8135 17.3833 13.8135C16.8583 13.8135 16.3567 13.7272 15.8833 13.5737ZM18.8833 4.07691V0.383709C18.8833 0.172669 18.7146 0 18.5083 0H16.2583C16.0521 0 15.8833 0.172669 15.8833 0.383709V4.07691C16.3567 3.91863 16.8583 3.83709 17.3833 3.83709C17.9083 3.83709 18.4099 3.92342 18.8833 4.07691Z" fill="#CDCCCC"/>
<path d="M16.1922 12.6252C16.5797 12.7518 16.9902 12.817 17.4199 12.817C17.8496 12.817 18.2601 12.748 18.6476 12.6252C20.2513 12.1073 21.4099 10.6034 21.4099 8.82704C21.4099 7.05072 20.2513 5.5468 18.6476 5.02886C18.2601 4.90226 17.8496 4.83704 17.4199 4.83704C16.9902 4.83704 16.5797 4.90609 16.1922 5.02886C14.5886 5.5468 13.4299 7.05072 13.4299 8.82704C13.4299 10.6034 14.5886 12.1073 16.1922 12.6252ZM16.1961 8.18633C16.2076 8.16331 16.2229 8.1403 16.2344 8.11728V8.11344L16.2805 8.04438C16.2843 8.03671 16.2882 8.03287 16.292 8.0252C16.3035 8.00602 16.3188 7.99067 16.3304 7.97149C16.3342 7.96765 16.338 7.95998 16.3419 7.95614C16.361 7.93312 16.3764 7.91394 16.3956 7.89476L16.4071 7.88325L16.4531 7.83721L16.4685 7.82186C16.4877 7.80268 16.5068 7.78733 16.5299 7.76815C16.5529 7.74897 16.5721 7.73362 16.5951 7.71828C16.6027 7.71444 16.6066 7.7106 16.6143 7.70677C16.6334 7.69526 16.6488 7.67991 16.668 7.6684C16.6718 7.66456 16.6795 7.66073 16.6833 7.65689C16.7063 7.64155 16.7294 7.63004 16.7562 7.61469C16.76 7.61085 16.7677 7.61085 16.7716 7.60702C16.7907 7.59551 16.8099 7.58783 16.8329 7.57632L16.856 7.56482C16.8828 7.55331 16.9058 7.5418 16.9327 7.53412C16.9595 7.52261 16.9864 7.51494 17.0133 7.50727C17.0209 7.50343 17.0286 7.50343 17.0363 7.49959C17.0593 7.49192 17.0785 7.48808 17.1015 7.48425C17.1092 7.48425 17.113 7.48041 17.1207 7.48041C17.1475 7.47274 17.1782 7.4689 17.2051 7.46507C17.2128 7.46507 17.2166 7.46506 17.2243 7.46123C17.2473 7.45739 17.2703 7.45739 17.2933 7.45356H17.3163C17.347 7.45356 17.3739 7.44972 17.4046 7.44972C17.4353 7.44972 17.4621 7.44972 17.4928 7.45356H17.5158C17.5389 7.45356 17.5619 7.45739 17.5849 7.46123C17.5926 7.46123 17.5964 7.46123 17.6041 7.46507C17.6309 7.4689 17.6616 7.47274 17.6885 7.48041C17.6962 7.48041 17.7 7.48425 17.7077 7.48425C17.7307 7.48808 17.7537 7.49576 17.7729 7.49959C17.7806 7.50343 17.7882 7.50343 17.7959 7.50727C17.8228 7.51494 17.8496 7.52261 17.8765 7.53412C17.9033 7.5418 17.9264 7.55331 17.9532 7.56482L17.9762 7.57632C17.9954 7.584 18.0184 7.59551 18.0376 7.60702C18.0415 7.61085 18.0491 7.61085 18.053 7.61469C18.076 7.6262 18.1028 7.64155 18.1259 7.65689C18.1297 7.66073 18.1374 7.66456 18.1412 7.6684C18.1604 7.67991 18.1796 7.69142 18.1949 7.70677C18.2026 7.7106 18.2064 7.71444 18.2141 7.71828C18.2371 7.73362 18.2601 7.75281 18.2793 7.76815C18.2985 7.7835 18.3215 7.80268 18.3407 7.82186L18.356 7.83721L18.4021 7.88325L18.4136 7.89476C18.4328 7.91394 18.452 7.93696 18.4673 7.95614C18.4711 7.95998 18.475 7.96765 18.4788 7.97149C18.4942 7.98683 18.5057 8.00602 18.5172 8.0252C18.521 8.03287 18.5249 8.03671 18.5287 8.04438L18.5747 8.11344V8.11728C18.5901 8.1403 18.6016 8.16331 18.6131 8.18633C18.7128 8.37816 18.7704 8.59684 18.7704 8.82704C18.7704 9.05723 18.7128 9.27591 18.6131 9.46774C18.6016 9.49076 18.5862 9.51378 18.5747 9.5368V9.54063L18.5287 9.60969C18.5249 9.61736 18.521 9.6212 18.5172 9.62887C18.5057 9.64806 18.4903 9.6634 18.4788 9.68258C18.475 9.68642 18.4711 9.69409 18.4673 9.69793C18.4481 9.72095 18.4328 9.74013 18.4136 9.75931L18.4021 9.77082L18.356 9.81686L18.3407 9.83221C18.3215 9.85139 18.3023 9.86674 18.2793 9.88592C18.2563 9.9051 18.2371 9.92045 18.2141 9.9358C18.2064 9.93963 18.2026 9.94347 18.1949 9.94731C18.1757 9.95882 18.1604 9.97416 18.1412 9.98567C18.1374 9.98951 18.1297 9.99334 18.1259 9.99718C18.1028 10.0125 18.0798 10.024 18.053 10.0394C18.0491 10.0432 18.0415 10.0432 18.0376 10.0471C18.0184 10.0586 17.9992 10.0662 17.9762 10.0777L17.9532 10.0893C17.9264 10.1008 17.9033 10.1123 17.8765 10.12C17.8496 10.1315 17.8228 10.1391 17.7959 10.1468C17.7882 10.1506 17.7806 10.1506 17.7729 10.1545C17.7499 10.1622 17.7307 10.166 17.7077 10.1698C17.7 10.1698 17.6962 10.1737 17.6885 10.1737C17.6616 10.1813 17.6309 10.1852 17.6041 10.189C17.5964 10.189 17.5926 10.189 17.5849 10.1928C17.5619 10.1967 17.5389 10.1967 17.5158 10.2005H17.4928C17.4621 10.2005 17.4353 10.2044 17.4046 10.2044C17.3739 10.2044 17.347 10.2044 17.3163 10.2005H17.2933C17.2703 10.2005 17.2473 10.1967 17.2243 10.1928C17.2166 10.1928 17.2128 10.1928 17.2051 10.189C17.1782 10.1852 17.1475 10.1813 17.1207 10.1737C17.113 10.1737 17.1092 10.1698 17.1015 10.1698C17.0785 10.166 17.0555 10.1583 17.0363 10.1545C17.0286 10.1506 17.0209 10.1506 17.0133 10.1468C16.9864 10.1391 16.9595 10.1315 16.9327 10.12C16.9058 10.1123 16.8828 10.1008 16.856 10.0893L16.8329 10.0777C16.8138 10.0701 16.7907 10.0586 16.7716 10.0471C16.7677 10.0432 16.76 10.0432 16.7562 10.0394C16.7332 10.0279 16.7063 10.0125 16.6833 9.99718C16.6795 9.99334 16.6718 9.98951 16.668 9.98567C16.6488 9.97416 16.6296 9.96265 16.6143 9.94731C16.6066 9.94347 16.6027 9.93963 16.5951 9.9358C16.5721 9.92045 16.549 9.90127 16.5299 9.88592C16.5107 9.87057 16.4877 9.85139 16.4685 9.83221L16.4531 9.81686L16.4071 9.77082L16.3956 9.75931C16.3764 9.74013 16.3572 9.71711 16.3419 9.69793C16.338 9.69409 16.3342 9.68642 16.3304 9.68258C16.315 9.66724 16.3035 9.64806 16.292 9.62887C16.2882 9.6212 16.2843 9.61736 16.2805 9.60969L16.2344 9.54063V9.5368C16.2191 9.51378 16.2076 9.49076 16.1961 9.46774C16.0963 9.27591 16.0388 9.05723 16.0388 8.82704C16.0388 8.59684 16.0963 8.37816 16.1961 8.18633Z" fill="#CDCCCC"/>
</svg>
