<svg width="14" height="12" viewBox="0 0 14 12" fill="none" xmlns="http://www.w3.org/2000/svg">
  <path d="M6.22494 4.4429V5.86349H4.81104C4.74244 5.86349 4.68555 5.91536 4.68555 5.98062V6.68339C4.68555 6.74697 4.74244 6.80052 4.81104 6.80052H6.22494V8.22111C6.22494 8.28637 6.27849 8.33991 6.34207 8.33991H7.04484C7.1101 8.33991 7.16197 8.28637 7.16197 8.22111V6.80052H8.57587C8.64447 6.80052 8.70136 6.74697 8.70136 6.68339V5.98062C8.70136 5.91536 8.64447 5.86349 8.57587 5.86349H7.16197V4.4429C7.16197 4.37764 7.1101 4.3241 7.04484 4.3241H6.34207C6.27849 4.3241 6.22494 4.37764 6.22494 4.4429Z" fill="#9F9F9F"/>
  <path d="M12.8506 2.02163H6.84362L4.88089 0.144233C4.85579 0.120808 4.82233 0.107422 4.78886 0.107422H0.535442C0.239276 0.107422 0 0.346698 0 0.642864V10.5485C0 10.8447 0.239276 11.084 0.535442 11.084H12.8506C13.1468 11.084 13.3861 10.8447 13.3861 10.5485V2.55707C13.3861 2.2609 13.1468 2.02163 12.8506 2.02163ZM12.1813 9.87924H1.20474V1.31217H4.35883L6.36005 3.22637H12.1813V9.87924Z" fill="#9F9F9F"/>
</svg>
