<svg width="110" height="32" viewBox="0 0 110 32" fill="none" xmlns="http://www.w3.org/2000/svg">
<path d="M28.4307 12.216C28.4307 5.18521 33.6159 0 40.9103 0C48.2487 0 53.39 5.18521 53.39 12.216C53.39 19.2468 48.2048 24.432 40.9103 24.432C33.6159 24.3881 28.4307 19.2468 28.4307 12.216ZM48.7321 12.216C48.7321 7.64599 45.5682 4.30636 40.9103 4.30636C36.2524 4.30636 33.0886 7.64599 33.0886 12.216C33.0886 16.786 36.2524 20.1696 40.9103 20.1696C45.5682 20.1696 48.7321 16.786 48.7321 12.216Z" fill="#393939"/>
<path d="M54.7086 15.2042C54.7086 9.44776 58.5756 5.71265 64.1562 5.71265C69.7809 5.71265 73.7357 9.57958 73.7357 15.2042C73.7357 21.2683 69.2096 24.3443 64.9033 24.3443C62.3546 24.3443 60.2454 23.2896 58.971 21.3122V31.4629H54.7086V15.2042ZM69.4293 15.0724C69.4293 11.9525 67.3201 9.71141 64.2002 9.71141C61.0803 9.71141 59.015 11.9525 59.015 15.0724C59.015 18.1923 61.0803 20.4334 64.2002 20.4334C67.3201 20.4334 69.4293 18.1923 69.4293 15.0724Z" fill="#393939"/>
<path d="M75.1855 15.2042C75.1855 9.44776 79.0525 5.71265 84.6332 5.71265C90.2578 5.71265 94.2126 9.57958 94.2126 15.2042C94.2126 21.2683 89.6866 24.3443 85.3802 24.3443C82.8315 24.3443 80.7223 23.2896 79.448 21.3122V31.4629H75.1855V15.2042ZM89.9063 15.0724C89.9063 11.9525 87.797 9.71141 84.6771 9.71141C81.5572 9.71141 79.4919 11.9525 79.4919 15.0724C79.4919 18.1923 81.5572 20.4334 84.6771 20.4334C87.7531 20.3894 89.9063 18.1923 89.9063 15.0724Z" fill="#393939"/>
<path d="M94.9597 18.6757H99.2661C99.31 19.8621 100.321 20.6531 102.43 20.6531C104.627 20.6531 105.55 19.7742 105.55 18.6757C105.55 17.3135 103.968 17.1377 102.078 16.874C99.354 16.5225 95.3552 16.0391 95.3552 11.6888C95.3552 8.08554 98.1236 5.71265 102.386 5.71265C106.736 5.71265 109.373 8.17342 109.505 11.2933H105.286C105.198 10.2387 104.188 9.44776 102.474 9.44776C100.628 9.44776 99.6616 10.3266 99.6616 11.3812C99.6616 12.7434 101.287 12.9632 103.177 13.2268C105.55 13.5344 109.9 14.0178 109.9 18.412C109.9 22.0153 107 24.3882 102.474 24.3882C97.9039 24.3882 95.0915 21.9714 94.9597 18.6757Z" fill="#393939"/>
<path d="M0 15.5996V15.4238H4.48213V15.5996C4.48213 18.4559 5.93223 20.1696 8.87638 20.1696C11.7766 20.1696 13.2267 18.4998 13.2267 15.5996V0.483398H17.7967V15.5996C17.7967 20.9606 14.5889 24.3881 8.83244 24.3881C3.2078 24.3881 0 20.9606 0 15.5996Z" fill="#FF3333"/>
<path d="M34.5385 7.38246C33.6597 8.52497 33.0884 9.93113 32.9566 11.557C33.7036 12.4798 34.0991 13.6662 34.0991 15.0724C34.0991 18.1923 32.0338 20.4334 28.9139 20.4334C25.794 20.4334 23.6847 18.1923 23.6847 15.0724C23.6847 12.0404 25.7061 9.84324 28.6942 9.75536C29.0018 8.30526 29.5291 6.98698 30.2321 5.84448C29.7927 5.80053 29.3533 5.75659 28.9139 5.75659C23.3332 5.75659 19.3784 9.71141 19.3784 15.0724C19.3784 20.4334 23.3332 24.3882 28.9139 24.3882C34.4946 24.3882 38.4494 20.4334 38.4494 15.0724C38.4933 11.7767 36.9993 9.00833 34.5385 7.38246Z" fill="#FF3333"/>
</svg>
