<svg width="31" height="28" viewBox="0 0 31 28" fill="none" xmlns="http://www.w3.org/2000/svg">
<path d="M30.3572 13.7752L17.1447 1.14616L16.2591 0.299212C15.8385 -0.0997372 15.1615 -0.0997372 14.7409 0.299212L0.642879 13.7752C0.222297 14.1774 -0.00338107 14.7104 3.82907e-05 15.2794C0.0137157 16.4305 1.01559 17.3494 2.21921 17.3494H3.67244V28H27.3276V17.3494H28.8116C29.3963 17.3494 29.9468 17.1303 30.3606 16.7346C30.7743 16.3389 31 15.8124 31 15.2533C31 14.6973 30.7709 14.1709 30.3572 13.7752ZM17.4149 25.6455H13.5852V18.9746H17.4149V25.6455ZM24.8657 14.9949V25.6455H19.6033V18.1898C19.6033 17.4671 18.9912 16.8818 18.2355 16.8818H12.7645C12.0088 16.8818 11.3968 17.4671 11.3968 18.1898V25.6455H6.13438V14.9949H2.85179L15.5034 2.90546L16.2933 3.66085L28.1517 14.9949H24.8657Z" fill="#FDFDFD"/>
</svg>
