<svg width="108" height="31" viewBox="0 0 108 31" fill="none" xmlns="http://www.w3.org/2000/svg">
<path d="M27.9131 11.9937C27.9131 5.09084 33.0039 0 40.1656 0C47.3705 0 52.4182 5.09084 52.4182 11.9937C52.4182 18.8965 47.3273 23.9874 40.1656 23.9874C33.0039 23.9442 27.9131 18.8965 27.9131 11.9937ZM47.845 11.9937C47.845 7.50684 44.7388 4.22799 40.1656 4.22799C35.5925 4.22799 32.4862 7.50684 32.4862 11.9937C32.4862 16.4805 35.5925 19.8025 40.1656 19.8025C44.7388 19.8025 47.845 16.4805 47.845 11.9937Z" fill="white"/>
<path d="M53.7129 14.9272C53.7129 9.27553 57.5095 5.6084 62.9886 5.6084C68.5108 5.6084 72.3937 9.40496 72.3937 14.9272C72.3937 20.8809 67.95 23.9009 63.722 23.9009C61.2197 23.9009 59.1489 22.8655 57.8977 20.9241V30.89H53.7129V14.9272ZM68.1657 14.7978C68.1657 11.7347 66.0949 9.53439 63.0317 9.53439C59.9686 9.53439 57.9409 11.7347 57.9409 14.7978C57.9409 17.8609 59.9686 20.0612 63.0317 20.0612C66.0949 20.0612 68.1657 17.8609 68.1657 14.7978Z" fill="white"/>
<path d="M73.8174 14.9272C73.8174 9.27553 77.6139 5.6084 83.0931 5.6084C88.6153 5.6084 92.4982 9.40496 92.4982 14.9272C92.4982 20.8809 88.0545 23.9009 83.8265 23.9009C81.3242 23.9009 79.2534 22.8655 78.0022 20.9241V30.89H73.8174V14.9272ZM88.2702 14.7978C88.2702 11.7347 86.1993 9.53439 83.1362 9.53439C80.0731 9.53439 78.0454 11.7347 78.0454 14.7978C78.0454 17.8609 80.0731 20.0612 83.1362 20.0612C86.1562 20.0181 88.2702 17.8609 88.2702 14.7978Z" fill="white"/>
<path d="M93.2314 18.3355H97.4594C97.5026 19.5004 98.4949 20.2769 100.566 20.2769C102.723 20.2769 103.629 19.4141 103.629 18.3355C103.629 16.9981 102.076 16.8255 100.221 16.5667C97.5457 16.2215 93.6197 15.7469 93.6197 11.4758C93.6197 7.93811 96.3377 5.6084 100.523 5.6084C104.794 5.6084 107.382 8.02439 107.512 11.0875H103.37C103.284 10.0521 102.291 9.27553 100.609 9.27553C98.7969 9.27553 97.8477 10.1384 97.8477 11.1738C97.8477 12.5112 99.444 12.727 101.299 12.9858C103.629 13.2878 107.9 13.7624 107.9 18.0767C107.9 21.6144 105.053 23.9441 100.609 23.9441C96.122 23.9441 93.3609 21.5712 93.2314 18.3355Z" fill="white"/>
<path d="M0 15.3157V15.1431H4.40056V15.3157C4.40056 18.12 5.82427 19.8026 8.71483 19.8026C11.5623 19.8026 12.986 18.1631 12.986 15.3157V0.474609H17.4728V15.3157C17.4728 20.5791 14.3234 23.9443 8.67169 23.9443C3.14942 23.9443 0 20.5791 0 15.3157Z" fill="#FF3333"/>
<path d="M33.9106 7.24814C33.0478 8.36985 32.4869 9.75042 32.3575 11.3467C33.0909 12.2527 33.4792 13.4175 33.4792 14.7981C33.4792 17.8612 31.4515 20.0615 28.3883 20.0615C25.3252 20.0615 23.2544 17.8612 23.2544 14.7981C23.2544 11.8213 25.2389 9.66413 28.1726 9.57784C28.4746 8.15413 28.9923 6.85985 29.6826 5.73814C29.2512 5.695 28.8198 5.65186 28.3883 5.65186C22.9092 5.65186 19.0264 9.5347 19.0264 14.7981C19.0264 20.0615 22.9092 23.9444 28.3883 23.9444C33.8675 23.9444 37.7503 20.0615 37.7503 14.7981C37.7935 11.5624 36.3266 8.84442 33.9106 7.24814Z" fill="#FF3333"/>
</svg>
