<svg width="251" height="72" viewBox="0 0 251 72" fill="none" xmlns="http://www.w3.org/2000/svg">
<path d="M64.7 27.8C64.7 11.8 76.5 0 93.1 0C109.8 0 121.5 11.8 121.5 27.8C121.5 43.8 109.7 55.6 93.1 55.6C76.5 55.5 64.7 43.8 64.7 27.8ZM110.9 27.8C110.9 17.4 103.7 9.8 93.1 9.8C82.5 9.8 75.3 17.4 75.3 27.8C75.3 38.2 82.5 45.9 93.1 45.9C103.7 45.9 110.9 38.2 110.9 27.8Z" fill="#393939"/>
<path d="M124.5 34.6C124.5 21.5 133.3 13 146 13C158.8 13 167.8 21.8 167.8 34.6C167.8 48.4 157.5 55.4 147.7 55.4C141.9 55.4 137.1 53 134.2 48.5V71.6H124.5V34.6ZM158 34.3C158 27.2 153.2 22.1 146.1 22.1C139 22.1 134.3 27.2 134.3 34.3C134.3 41.4 139 46.5 146.1 46.5C153.2 46.5 158 41.4 158 34.3Z" fill="#393939"/>
<path d="M171.1 34.6C171.1 21.5 179.9 13 192.6 13C205.4 13 214.4 21.8 214.4 34.6C214.4 48.4 204.1 55.4 194.3 55.4C188.5 55.4 183.7 53 180.8 48.5V71.6H171.1V34.6ZM204.6 34.3C204.6 27.2 199.8 22.1 192.7 22.1C185.6 22.1 180.9 27.2 180.9 34.3C180.9 41.4 185.6 46.5 192.7 46.5C199.7 46.4 204.6 41.4 204.6 34.3Z" fill="#393939"/>
<path d="M216.1 42.5H225.9C226 45.2 228.3 47 233.1 47C238.1 47 240.2 45 240.2 42.5C240.2 39.4 236.6 39 232.3 38.4C226.1 37.6 217 36.5 217 26.6C217 18.4 223.3 13 233 13C242.9 13 248.9 18.6 249.2 25.7H239.6C239.4 23.3 237.1 21.5 233.2 21.5C229 21.5 226.8 23.5 226.8 25.9C226.8 29 230.5 29.5 234.8 30.1C240.2 30.8 250.1 31.9 250.1 41.9C250.1 50.1 243.5 55.5 233.2 55.5C222.8 55.5 216.4 50 216.1 42.5Z" fill="#393939"/>
<path d="M0 35.5V35.1H10.2V35.5C10.2 42 13.5 45.9 20.2 45.9C26.8 45.9 30.1 42.1 30.1 35.5V1.09998H40.5V35.5C40.5 47.7 33.2 55.5 20.1 55.5C7.3 55.5 0 47.7 0 35.5Z" fill="#FF3333"/>
<path d="M78.6001 16.8C76.6001 19.4 75.3001 22.6 75.0001 26.3C76.7001 28.4 77.6001 31.1 77.6001 34.3C77.6001 41.4 72.9001 46.5 65.8001 46.5C58.7001 46.5 53.9001 41.4 53.9001 34.3C53.9001 27.4 58.5001 22.4 65.3001 22.2C66.0001 18.9 67.2001 15.9 68.8001 13.3C67.8001 13.2 66.8001 13.1 65.8001 13.1C53.1001 13.1 44.1001 22.1 44.1001 34.3C44.1001 46.5 53.1001 55.5 65.8001 55.5C78.5001 55.5 87.5001 46.5 87.5001 34.3C87.6001 26.8 84.2001 20.5 78.6001 16.8Z" fill="#FF3333"/>
</svg>
