<svg width="184" height="53" viewBox="0 0 184 53" fill="none" xmlns="http://www.w3.org/2000/svg">
<path d="M47.474 20.3985C47.474 8.65836 56.1324 0 68.3128 0C80.5665 0 89.1515 8.65836 89.1515 20.3985C89.1515 32.1386 80.4932 40.797 68.3128 40.797C56.1324 40.7236 47.474 32.1386 47.474 20.3985ZM81.3737 20.3985C81.3737 12.7674 76.0906 7.19084 68.3128 7.19084C60.5349 7.19084 55.2518 12.7674 55.2518 20.3985C55.2518 28.0296 60.5349 33.6795 68.3128 33.6795C76.0906 33.6795 81.3737 28.0296 81.3737 20.3985Z" fill="#393939"/>
<path d="M91.354 25.3878C91.354 15.7755 97.8111 9.53857 107.13 9.53857C116.522 9.53857 123.126 15.9957 123.126 25.3878C123.126 35.5136 115.568 40.65 108.377 40.65C104.121 40.65 100.599 38.8889 98.4715 35.587V52.5368H91.354V25.3878ZM115.935 25.1676C115.935 19.958 112.413 16.2158 107.203 16.2158C101.994 16.2158 98.5448 19.958 98.5448 25.1676C98.5448 30.3773 101.994 34.1195 107.203 34.1195C112.413 34.1195 115.935 30.3773 115.935 25.1676Z" fill="#393939"/>
<path d="M125.546 25.3878C125.546 15.7755 132.003 9.53857 141.322 9.53857C150.714 9.53857 157.318 15.9957 157.318 25.3878C157.318 35.5136 149.76 40.65 142.569 40.65C138.314 40.65 134.792 38.8889 132.664 35.587V52.5368H125.546V25.3878ZM150.127 25.1676C150.127 19.958 146.605 16.2158 141.395 16.2158C136.186 16.2158 132.737 19.958 132.737 25.1676C132.737 30.3773 136.186 34.1195 141.395 34.1195C146.532 34.0461 150.127 30.3773 150.127 25.1676Z" fill="#393939"/>
<path d="M158.566 31.1845H165.757C165.83 33.1656 167.518 34.4864 171.04 34.4864C174.708 34.4864 176.249 33.0189 176.249 31.1845C176.249 28.9098 173.608 28.6163 170.453 28.1761C165.903 27.589 159.226 26.7819 159.226 19.5177C159.226 13.5009 163.849 9.53857 170.966 9.53857C178.231 9.53857 182.633 13.6476 182.853 18.8573H175.809C175.662 17.0963 173.975 15.7755 171.113 15.7755C168.031 15.7755 166.417 17.243 166.417 19.0041C166.417 21.2787 169.132 21.6456 172.287 22.0859C176.249 22.5995 183.514 23.4066 183.514 30.7442C183.514 36.761 178.671 40.7233 171.113 40.7233C163.482 40.7233 158.786 36.6877 158.566 31.1845Z" fill="#393939"/>
<path d="M0 26.0484V25.7549H7.48434V26.0484C7.48434 30.8179 9.90575 33.6795 14.8219 33.6795C19.6647 33.6795 22.0861 30.8912 22.0861 26.0484V0.807129H29.7172V26.0484C29.7172 35.0003 24.3608 40.7236 14.7486 40.7236C5.35644 40.7236 0 35.0003 0 26.0484Z" fill="#FF3333"/>
<path d="M57.6724 12.327C56.2048 14.2347 55.2509 16.5828 55.0308 19.2977C56.2782 20.8386 56.9386 22.8197 56.9386 25.1678C56.9386 30.3774 53.4899 34.1196 48.2802 34.1196C43.0706 34.1196 39.5485 30.3774 39.5485 25.1678C39.5485 20.1048 42.9238 16.436 47.9134 16.2893C48.427 13.8679 49.3075 11.6666 50.4815 9.75881C49.7478 9.68544 49.014 9.61206 48.2802 9.61206C38.9615 9.61206 32.3577 16.2159 32.3577 25.1678C32.3577 34.1196 38.9615 40.7234 48.2802 40.7234C57.599 40.7234 64.2028 34.1196 64.2028 25.1678C64.2762 19.6646 61.7814 15.0419 57.6724 12.327Z" fill="#FF3333"/>
</svg>
