<svg width="14" height="14" viewBox="0 0 14 14" fill="none" xmlns="http://www.w3.org/2000/svg">
<path d="M7 0C3.13438 0 0 3.13438 0 7C0 10.8656 3.13438 14 7 14C10.8656 14 14 10.8656 14 7C14 3.13438 10.8656 0 7 0ZM7 12.8125C3.79063 12.8125 1.1875 10.2094 1.1875 7C1.1875 3.79063 3.79063 1.1875 7 1.1875C10.2094 1.1875 12.8125 3.79063 12.8125 7C12.8125 10.2094 10.2094 12.8125 7 12.8125Z" fill="#979797"/>
<path d="M6.25003 4.25C6.25003 4.44891 6.32905 4.63968 6.4697 4.78033C6.61035 4.92098 6.80112 5 7.00003 5C7.19894 5 7.38971 4.92098 7.53036 4.78033C7.67101 4.63968 7.75003 4.44891 7.75003 4.25C7.75003 4.05109 7.67101 3.86032 7.53036 3.71967C7.38971 3.57902 7.19894 3.5 7.00003 3.5C6.80112 3.5 6.61035 3.57902 6.4697 3.71967C6.32905 3.86032 6.25003 4.05109 6.25003 4.25Z" fill="#979797"/>
<path d="M7.37512 6H6.62512C6.55637 6 6.50012 6.05625 6.50012 6.125V10.375C6.50012 10.4437 6.55637 10.5 6.62512 10.5H7.37512C7.44387 10.5 7.50012 10.4437 7.50012 10.375V6.125C7.50012 6.05625 7.44387 6 7.37512 6Z" fill="#979797"/>
</svg>
