<svg width="15" height="15" viewBox="0 0 15 15" fill="none" xmlns="http://www.w3.org/2000/svg">
  <path d="M13.7726 7.96074C14.0537 7.58927 14.2093 7.13415 14.2093 6.66062C14.2093 5.90932 13.7893 5.19819 13.1133 4.80163C12.9393 4.69955 12.7411 4.64583 12.5394 4.64601H8.52692L8.62731 2.58958C8.65074 2.09262 8.47505 1.62077 8.1337 1.26102C7.79068 0.901266 7.32886 0.702148 6.83023 0.702148C5.96014 0.702148 5.19044 1.28779 4.95953 2.12609L3.52221 7.32992H1.35868C1.06252 7.32992 0.823242 7.56919 0.823242 7.86536V13.956C0.823242 14.2522 1.06252 14.4915 1.35868 14.4915H11.42C11.5739 14.4915 11.7245 14.4613 11.8634 14.4011C12.6599 14.0614 13.1736 13.2834 13.1736 12.42C13.1736 12.2091 13.1434 12.0017 13.0832 11.8009C13.3643 11.4294 13.5199 10.9743 13.5199 10.5007C13.5199 10.2899 13.4898 10.0824 13.4296 9.88163C13.7107 9.51017 13.8663 9.05505 13.8663 8.58151C13.8629 8.37068 13.8328 8.16153 13.7726 7.96074V7.96074ZM2.02799 13.2867V8.53466H3.38333V13.2867H2.02799ZM12.6766 7.38012L12.3102 7.69803L12.5427 8.12304C12.6197 8.2636 12.6582 8.41753 12.6582 8.57984C12.6582 8.85593 12.5377 9.11863 12.3302 9.29934L11.9638 9.61726L12.1964 10.0423C12.2733 10.1828 12.3118 10.3368 12.3118 10.4991C12.3118 10.7752 12.1913 11.0379 11.9839 11.2186L11.6174 11.5365L11.85 11.9615C11.927 12.102 11.9655 12.256 11.9655 12.4183C11.9655 12.7931 11.7446 13.1311 11.4032 13.285H4.45421V8.48112L6.1191 2.44903C6.20611 2.13278 6.49558 1.91024 6.82521 1.90857C6.95238 1.90857 7.07788 1.94538 7.17827 2.02067C7.34392 2.1445 7.43261 2.3319 7.42257 2.53102L7.26193 5.85076H12.5227C12.8205 6.03314 13.0046 6.34102 13.0046 6.66062C13.0046 6.9367 12.8841 7.19773 12.6766 7.38012Z" fill="#9F9F9F"/>
</svg>
