<svg width="15" height="11" viewBox="0 0 15 11" fill="none" xmlns="http://www.w3.org/2000/svg">
  <path d="M14.0901 0.811289L10.757 1.21287C10.6466 1.22626 10.5997 1.36179 10.6784 1.44043L11.6706 2.43268L7.88904 6.21424L6.18567 4.51253C6.08025 4.40712 5.91125 4.40879 5.80751 4.51253L0.424645 9.89707C0.372774 9.94895 0.372774 10.0343 0.424645 10.0862L1.17761 10.8425C1.22948 10.8943 1.31482 10.8943 1.36669 10.8425L5.99659 6.21424L7.69829 7.91594C7.80371 8.01968 7.97271 8.01968 8.07645 7.91594L12.6177 3.37807L13.6099 4.37031C13.6886 4.44895 13.8241 4.4021 13.8375 4.29166L14.2391 0.958536C14.2508 0.8732 14.1771 0.799576 14.0901 0.811289Z" fill="#9F9F9F"/>
</svg>
