<svg width="12" height="15" viewBox="0 0 12 15" fill="none" xmlns="http://www.w3.org/2000/svg">
  <path d="M6.42191 8.54035L6.42693 8.51692C6.52398 8.11702 6.64613 7.61839 6.55075 7.16661C6.48717 6.8102 6.22446 6.67132 6.00025 6.66128C5.73587 6.64957 5.49994 6.80016 5.44138 7.01936C5.33095 7.42094 5.42967 7.96977 5.61038 8.66919C5.38282 9.21133 5.01972 9.99943 4.75367 10.4679C4.25839 10.7239 3.5941 11.1188 3.49538 11.6175C3.4753 11.7095 3.49873 11.8266 3.55395 11.932C3.61586 12.0492 3.71458 12.1395 3.83003 12.183C3.88023 12.2014 3.94047 12.2165 4.01075 12.2165C4.30524 12.2165 4.78212 11.9789 5.41795 10.8879C5.515 10.8561 5.6154 10.8227 5.71245 10.7892C6.16757 10.6353 6.63943 10.4746 7.06611 10.4027C7.53797 10.6553 8.07509 10.8177 8.43986 10.8177C8.80128 10.8177 8.94351 10.6035 8.99705 10.4746C9.09075 10.2487 9.04558 9.96429 8.89331 9.81203C8.67244 9.5945 8.13532 9.53761 7.2987 9.64135C6.88707 9.39036 6.61768 9.04902 6.42191 8.54035ZM4.58635 11.082C4.35376 11.42 4.17807 11.589 4.0827 11.6626C4.1948 11.4568 4.414 11.2393 4.58635 11.082ZM6.05212 7.14151C6.13913 7.29043 6.12742 7.74053 6.06049 7.9681C5.9785 7.63512 5.96678 7.16326 6.01531 7.10804C6.02869 7.10972 6.04041 7.11976 6.05212 7.14151ZM6.02535 9.15778C6.20439 9.46733 6.43028 9.73338 6.67959 9.93083C6.31817 10.0128 5.98854 10.1484 5.69404 10.2688C5.62377 10.2973 5.55516 10.3257 5.48823 10.3525C5.71077 9.94923 5.89651 9.49243 6.02535 9.15778V9.15778ZM8.62893 10.2538C8.63061 10.2571 8.63228 10.2621 8.62224 10.2688H8.61889L8.61555 10.2738C8.60216 10.2822 8.46496 10.3625 7.8743 10.1299C8.55364 10.0982 8.62726 10.2521 8.62893 10.2538V10.2538Z" fill="#9F9F9F"/>
  <path d="M11.8314 3.75813L8.23058 0.157286C8.13018 0.0568908 7.99465 0 7.85242 0H0.744427C0.44826 0 0.208984 0.239276 0.208984 0.535442V14.4569C0.208984 14.7531 0.44826 14.9924 0.744427 14.9924H11.4533C11.7494 14.9924 11.9887 14.7531 11.9887 14.4569V4.13796C11.9887 3.99574 11.9318 3.85853 11.8314 3.75813ZM10.7538 4.38393H7.60478V1.23486L10.7538 4.38393ZM10.784 13.7876H1.41373V1.20474H6.46696V4.81898C6.46696 5.20718 6.78154 5.52175 7.16973 5.52175H10.784V13.7876Z" fill="#9F9F9F"/>
</svg>
