<svg width="18" height="22" viewBox="0 0 18 22" fill="none" xmlns="http://www.w3.org/2000/svg">
<path d="M17.2893 5.34973L12.1634 0.223898C12.0205 0.0809844 11.8276 0 11.6251 0H1.50683C1.08524 0 0.744629 0.340611 0.744629 0.762206V20.5796C0.744629 21.0012 1.08524 21.3418 1.50683 21.3418H16.7509C17.1725 21.3418 17.5132 21.0012 17.5132 20.5796V5.89042C17.5132 5.68796 17.4322 5.49265 17.2893 5.34973ZM15.7553 6.24056H11.2726V1.75784L15.7553 6.24056ZM15.7982 19.6268H2.45959V1.71496H9.65291V6.85985C9.65291 7.41245 10.1007 7.86025 10.6533 7.86025H15.7982V19.6268Z" fill="#979797"/>
</svg>
