<svg width="16" height="16" viewBox="0 0 16 16" fill="none" xmlns="http://www.w3.org/2000/svg">
<path d="M14.9418 1.86735C15.1714 1.17849 15.1284 0.647523 14.8125 0.274231C14.4393 -0.0415643 13.9082 -0.0844696 13.2192 0.144761C12.5303 0.374407 11.9131 0.761875 11.3676 1.30724L9.64541 3.0296L2.48734 1.31814C2.3725 1.28221 2.26486 1.3109 2.16446 1.40417L0.786545 2.78201C0.707709 2.86103 0.675322 2.95789 0.689725 3.07269C0.711253 3.18765 0.772293 3.27365 0.872732 3.33111L6.34102 6.33433L3.553 9.12235L1.46474 8.55199C1.45041 8.54475 1.42179 8.54113 1.3787 8.54113C1.27818 8.54113 1.19573 8.57337 1.13111 8.63803L0.0977966 9.68208C0.0260489 9.76801 -0.00618671 9.85778 0.000976751 9.95098C0.0152283 10.0658 0.0618662 10.1483 0.14089 10.1987L2.85343 12.233L4.88781 14.9455C4.95244 15.0246 5.03859 15.071 5.14623 15.0856H5.16776C5.26827 15.0856 5.35073 15.0533 5.41535 14.9888L6.44862 13.9556C6.5419 13.855 6.57063 13.7438 6.53481 13.6218L5.96426 11.5335L8.75224 8.74533L11.7556 14.2139C11.7986 14.3072 11.8739 14.3646 11.9816 14.3862C12.0031 14.3934 12.0282 14.3969 12.057 14.3969C12.1429 14.3969 12.2112 14.3753 12.2614 14.3323L13.6395 13.299C13.7613 13.1986 13.8044 13.0803 13.7687 12.9439L12.0464 5.45206L13.7795 3.71906C14.3247 3.17347 14.7122 2.55621 14.9418 1.86735Z" fill="#B6B6B6"/>
</svg>
