<svg width="25" height="28" viewBox="0 0 25 28" fill="none" xmlns="http://www.w3.org/2000/svg">
<path d="M24.0192 22.8503C23.3909 21.2744 22.4866 19.8603 21.3397 18.6467C20.1928 17.4332 18.8563 16.4799 17.367 15.8116C17.3537 15.8045 17.3404 15.801 17.3271 15.794C19.3982 14.2111 20.7446 11.6327 20.7446 8.72362C20.7446 3.90452 17.0545 0 12.5 0C7.9455 0 4.25536 3.90452 4.25536 8.72362C4.25536 11.6327 5.60177 14.2111 7.6729 15.7975C7.6596 15.8045 7.6463 15.808 7.63301 15.8151C6.14365 16.4799 4.80722 17.4332 3.66029 18.6503C2.51335 19.8638 1.61243 21.2779 0.98078 22.8538C0.362433 24.3945 0.0333121 26.0301 6.7619e-05 27.7116C-0.00325683 27.8698 0.116423 28 0.266024 28H2.26069C2.40697 28 2.52333 27.8769 2.52665 27.7256C2.59314 25.01 3.62372 22.4668 5.44552 20.5392C7.33048 18.5447 9.83379 17.4472 12.5 17.4472C15.1662 17.4472 17.6695 18.5447 19.5545 20.5392C21.3763 22.4668 22.4069 25.01 22.4734 27.7256C22.4767 27.8804 22.593 28 22.7393 28H24.734C24.8836 28 25.0033 27.8698 24.9999 27.7116C24.9667 26.0301 24.6376 24.3945 24.0192 22.8503ZM12.5 14.7739C10.9741 14.7739 9.53792 14.1442 8.45747 13.001C7.37702 11.8578 6.78195 10.3382 6.78195 8.72362C6.78195 7.10905 7.37702 5.58945 8.45747 4.44623C9.53792 3.30301 10.9741 2.67337 12.5 2.67337C14.0259 2.67337 15.4621 3.30301 16.5425 4.44623C17.623 5.58945 18.2181 7.10905 18.2181 8.72362C18.2181 10.3382 17.623 11.8578 16.5425 13.001C15.4621 14.1442 14.0259 14.7739 12.5 14.7739Z" fill="#FDFDFD"/>
</svg>
