<svg width="20" height="20" viewBox="0 0 20 20" fill="none" xmlns="http://www.w3.org/2000/svg">
<path fill-rule="evenodd" clip-rule="evenodd" d="M8.20898 0C3.70079 0 0 3.57171 0 8.0339C0 12.4961 3.70079 16.0678 8.20898 16.0678C9.82778 16.0678 11.3425 15.6073 12.6191 14.8103C12.6932 14.9508 12.7893 15.0826 12.9074 15.2007L17.2317 19.525C17.865 20.1583 18.8918 20.1583 19.525 19.525C20.1583 18.8918 20.1583 17.865 19.525 17.2317L15.2007 12.9074C15.111 12.8177 15.0135 12.7407 14.9102 12.6765C15.8587 11.3685 16.418 9.76848 16.418 8.0339C16.418 3.57171 12.7172 0 8.20898 0ZM2.16216 8.0339C2.16216 4.81622 4.84391 2.16216 8.20898 2.16216C11.574 2.16216 14.2558 4.81622 14.2558 8.0339C14.2558 11.2516 11.574 13.9056 8.20898 13.9056C4.84391 13.9056 2.16216 11.2516 2.16216 8.0339Z" fill="#C2C1C1"/>
</svg>
