<svg width="20" height="15" viewBox="0 0 20 15" fill="none" xmlns="http://www.w3.org/2000/svg">
<path d="M19.5635 0.00175184L14.8187 0.573406C14.6615 0.592461 14.5948 0.785394 14.7068 0.897343L16.1193 2.30981L10.7362 7.69288L8.31141 5.2705C8.16135 5.12044 7.92078 5.12282 7.7731 5.2705L0.110555 12.9354C0.0367161 13.0093 0.0367161 13.1307 0.110555 13.2046L1.18241 14.2812C1.25625 14.355 1.37772 14.355 1.45156 14.2812L8.04226 7.69288L10.4646 10.1153C10.6147 10.2629 10.8553 10.2629 11.0029 10.1153L17.4674 3.65558L18.8799 5.06804C18.9918 5.17999 19.1848 5.11329 19.2038 4.95609L19.7755 0.211358C19.7921 0.0898816 19.6873 -0.0149214 19.5635 0.00175184Z" fill="#979797"/>
</svg>
